<mxfile host="65bd71144e">
    <diagram id="1Gyu1dNWtYHK6NGCt_mM" name="Page-1">
        <mxGraphModel dx="1129" dy="717" grid="1" gridSize="10" guides="1" tooltips="1" connect="1" arrows="1" fold="1" page="0" pageScale="1" pageWidth="1100" pageHeight="850" background="#000000" math="0" shadow="0">
            <root>
                <mxCell id="0"/>
                <mxCell id="1" parent="0"/>
                <mxCell id="235" value="User" style="swimlane;startSize=0;rounded=1;shadow=0;glass=0;labelBackgroundColor=none;comic=0;fontSize=11;strokeColor=none;fillColor=none;gradientDirection=north;fontColor=#FFFFFF;swimlaneFillColor=#331A00;sketch=1;labelBorderColor=none;" parent="1" vertex="1">
                    <mxGeometry x="-130" y="410" width="460" height="300" as="geometry"/>
                </mxCell>
                <mxCell id="75" value="User" style="swimlane;fontStyle=1;align=center;verticalAlign=top;childLayout=stackLayout;horizontal=1;startSize=26;horizontalStack=0;resizeParent=1;resizeParentMax=0;resizeLast=0;collapsible=1;marginBottom=0;fillColor=#6a00ff;fontColor=#FFFFFF;rounded=1;sketch=1;labelBorderColor=none;strokeColor=#3700CC;" parent="235" vertex="1">
                    <mxGeometry x="277.5" y="38" width="160" height="242" as="geometry"/>
                </mxCell>
                <mxCell id="76" value="+ id: int" style="text;strokeColor=none;fillColor=none;align=left;verticalAlign=top;spacingLeft=4;spacingRight=4;overflow=hidden;rotatable=0;points=[[0,0.5],[1,0.5]];portConstraint=eastwest;fontColor=#FFFFFF;rounded=1;sketch=1;labelBorderColor=none;" parent="75" vertex="1">
                    <mxGeometry y="26" width="160" height="26" as="geometry"/>
                </mxCell>
                <mxCell id="182" value="+ username: string" style="text;strokeColor=none;fillColor=none;align=left;verticalAlign=top;spacingLeft=4;spacingRight=4;overflow=hidden;rotatable=0;points=[[0,0.5],[1,0.5]];portConstraint=eastwest;fontColor=#FFFFFF;rounded=1;sketch=1;labelBorderColor=none;" parent="75" vertex="1">
                    <mxGeometry y="52" width="160" height="26" as="geometry"/>
                </mxCell>
                <mxCell id="77" value="+ avatar: string" style="text;strokeColor=none;fillColor=none;align=left;verticalAlign=top;spacingLeft=4;spacingRight=4;overflow=hidden;rotatable=0;points=[[0,0.5],[1,0.5]];portConstraint=eastwest;fontColor=#FFFFFF;rounded=1;sketch=1;labelBorderColor=none;" parent="75" vertex="1">
                    <mxGeometry y="78" width="160" height="26" as="geometry"/>
                </mxCell>
                <mxCell id="303" value="+ mode: int" style="text;strokeColor=none;fillColor=none;align=left;verticalAlign=top;spacingLeft=4;spacingRight=4;overflow=hidden;rotatable=0;points=[[0,0.5],[1,0.5]];portConstraint=eastwest;fontColor=#FFFFFF;rounded=1;sketch=1;labelBorderColor=none;" parent="75" vertex="1">
                    <mxGeometry y="104" width="160" height="26" as="geometry"/>
                </mxCell>
                <mxCell id="78" value="+ name: string" style="text;strokeColor=none;fillColor=none;align=left;verticalAlign=top;spacingLeft=4;spacingRight=4;overflow=hidden;rotatable=0;points=[[0,0.5],[1,0.5]];portConstraint=eastwest;fontColor=#FFFFFF;rounded=1;sketch=1;labelBorderColor=none;" parent="75" vertex="1">
                    <mxGeometry y="130" width="160" height="26" as="geometry"/>
                </mxCell>
                <mxCell id="93" value="+ email: string" style="text;strokeColor=none;fillColor=none;align=left;verticalAlign=top;spacingLeft=4;spacingRight=4;overflow=hidden;rotatable=0;points=[[0,0.5],[1,0.5]];portConstraint=eastwest;fontColor=#FFFFFF;rounded=1;sketch=1;labelBorderColor=none;" parent="75" vertex="1">
                    <mxGeometry y="156" width="160" height="26" as="geometry"/>
                </mxCell>
                <mxCell id="79" value="+ github: string" style="text;strokeColor=none;fillColor=none;align=left;verticalAlign=top;spacingLeft=4;spacingRight=4;overflow=hidden;rotatable=0;points=[[0,0.5],[1,0.5]];portConstraint=eastwest;fontColor=#FFFFFF;rounded=1;sketch=1;labelBorderColor=none;" parent="75" vertex="1">
                    <mxGeometry y="182" width="160" height="26" as="geometry"/>
                </mxCell>
                <mxCell id="94" value="+ website: string" style="text;strokeColor=none;fillColor=none;align=left;verticalAlign=top;spacingLeft=4;spacingRight=4;overflow=hidden;rotatable=0;points=[[0,0.5],[1,0.5]];portConstraint=eastwest;fontColor=#FFFFFF;rounded=1;sketch=1;labelBorderColor=none;" parent="75" vertex="1">
                    <mxGeometry y="208" width="160" height="26" as="geometry"/>
                </mxCell>
                <mxCell id="81" value="" style="line;strokeWidth=1;fillColor=none;align=left;verticalAlign=middle;spacingTop=-1;spacingLeft=3;spacingRight=3;rotatable=0;labelPosition=right;points=[];portConstraint=eastwest;fontColor=#FFFFFF;rounded=1;sketch=1;labelBorderColor=none;" parent="75" vertex="1">
                    <mxGeometry y="234" width="160" height="8" as="geometry"/>
                </mxCell>
                <mxCell id="243" style="edgeStyle=none;html=1;fontSize=11;startArrow=none;startFill=0;endArrow=block;endFill=1;fontColor=#FFFFFF;rounded=1;sketch=0;labelBorderColor=none;strokeColor=#FFFFFF;" parent="235" source="237" target="75" edge="1">
                    <mxGeometry relative="1" as="geometry">
                        <Array as="points"/>
                    </mxGeometry>
                </mxCell>
                <mxCell id="237" value="Admin" style="swimlane;fontStyle=1;align=center;verticalAlign=top;childLayout=stackLayout;horizontal=1;startSize=26;horizontalStack=0;resizeParent=1;resizeParentMax=0;resizeLast=0;collapsible=1;marginBottom=0;fillColor=#6a00ff;fontColor=#FFFFFF;rounded=1;sketch=1;labelBorderColor=none;strokeColor=#3700CC;" parent="235" vertex="1">
                    <mxGeometry x="30" y="129" width="160" height="60" as="geometry"/>
                </mxCell>
                <mxCell id="251" value="+ admin: boolean" style="text;strokeColor=none;fillColor=none;align=left;verticalAlign=top;spacingLeft=4;spacingRight=4;overflow=hidden;rotatable=0;points=[[0,0.5],[1,0.5]];portConstraint=eastwest;fontColor=#FFFFFF;rounded=1;sketch=1;labelBorderColor=none;" parent="237" vertex="1">
                    <mxGeometry y="26" width="160" height="26" as="geometry"/>
                </mxCell>
                <mxCell id="241" value="" style="line;strokeWidth=1;fillColor=none;align=left;verticalAlign=middle;spacingTop=-1;spacingLeft=3;spacingRight=3;rotatable=0;labelPosition=right;points=[];portConstraint=eastwest;fontColor=#FFFFFF;rounded=1;sketch=1;labelBorderColor=none;" parent="237" vertex="1">
                    <mxGeometry y="52" width="160" height="8" as="geometry"/>
                </mxCell>
                <mxCell id="232" value="Roadmap" style="swimlane;startSize=0;rounded=1;shadow=0;glass=0;labelBackgroundColor=none;comic=0;fontSize=11;strokeColor=none;fillColor=none;gradientColor=none;gradientDirection=north;swimlaneFillColor=#003300;fontColor=#FFFFFF;sketch=1;labelBorderColor=none;" parent="1" vertex="1">
                    <mxGeometry x="106" y="77" width="1014" height="290" as="geometry"/>
                </mxCell>
                <mxCell id="44" value="Resource" style="swimlane;fontStyle=1;align=center;verticalAlign=top;childLayout=stackLayout;horizontal=1;startSize=26;horizontalStack=0;resizeParent=1;resizeParentMax=0;resizeLast=0;collapsible=1;marginBottom=0;fillColor=#6a00ff;fontColor=#FFFFFF;rounded=1;sketch=1;labelBorderColor=none;strokeColor=#3700CC;" parent="232" vertex="1">
                    <mxGeometry x="804" y="73" width="160" height="164" as="geometry"/>
                </mxCell>
                <mxCell id="86" value="+ id: int" style="text;strokeColor=none;fillColor=none;align=left;verticalAlign=top;spacingLeft=4;spacingRight=4;overflow=hidden;rotatable=0;points=[[0,0.5],[1,0.5]];portConstraint=eastwest;fontColor=#FFFFFF;rounded=1;sketch=1;labelBorderColor=none;" parent="44" vertex="1">
                    <mxGeometry y="26" width="160" height="26" as="geometry"/>
                </mxCell>
                <mxCell id="45" value="+ title: string" style="text;strokeColor=none;fillColor=none;align=left;verticalAlign=top;spacingLeft=4;spacingRight=4;overflow=hidden;rotatable=0;points=[[0,0.5],[1,0.5]];portConstraint=eastwest;fontColor=#FFFFFF;rounded=1;sketch=1;labelBorderColor=none;" parent="44" vertex="1">
                    <mxGeometry y="52" width="160" height="26" as="geometry"/>
                </mxCell>
                <mxCell id="46" value="+ description: string" style="text;strokeColor=none;fillColor=none;align=left;verticalAlign=top;spacingLeft=4;spacingRight=4;overflow=hidden;rotatable=0;points=[[0,0.5],[1,0.5]];portConstraint=eastwest;fontColor=#FFFFFF;rounded=1;sketch=1;labelBorderColor=none;" parent="44" vertex="1">
                    <mxGeometry y="78" width="160" height="26" as="geometry"/>
                </mxCell>
                <mxCell id="47" value="+ link: string" style="text;strokeColor=none;fillColor=none;align=left;verticalAlign=top;spacingLeft=4;spacingRight=4;overflow=hidden;rotatable=0;points=[[0,0.5],[1,0.5]];portConstraint=eastwest;fontColor=#FFFFFF;rounded=1;sketch=1;labelBorderColor=none;" parent="44" vertex="1">
                    <mxGeometry y="104" width="160" height="26" as="geometry"/>
                </mxCell>
                <mxCell id="48" value="+ visited: boolean" style="text;strokeColor=none;fillColor=none;align=left;verticalAlign=top;spacingLeft=4;spacingRight=4;overflow=hidden;rotatable=0;points=[[0,0.5],[1,0.5]];portConstraint=eastwest;fontColor=#FFFFFF;rounded=1;sketch=1;labelBorderColor=none;" parent="44" vertex="1">
                    <mxGeometry y="130" width="160" height="26" as="geometry"/>
                </mxCell>
                <mxCell id="49" value="" style="line;strokeWidth=1;fillColor=none;align=left;verticalAlign=middle;spacingTop=-1;spacingLeft=3;spacingRight=3;rotatable=0;labelPosition=right;points=[];portConstraint=eastwest;fontColor=#FFFFFF;rounded=1;sketch=1;labelBorderColor=none;" parent="44" vertex="1">
                    <mxGeometry y="156" width="160" height="8" as="geometry"/>
                </mxCell>
                <mxCell id="7" value="Module" style="swimlane;fontStyle=1;align=center;verticalAlign=top;childLayout=stackLayout;horizontal=1;startSize=26;horizontalStack=0;resizeParent=1;resizeParentMax=0;resizeLast=0;collapsible=1;marginBottom=0;fillColor=#6a00ff;fontColor=#FFFFFF;rounded=1;sketch=1;labelBorderColor=none;strokeColor=#3700CC;" parent="232" vertex="1">
                    <mxGeometry x="294" y="72" width="160" height="164" as="geometry"/>
                </mxCell>
                <mxCell id="84" value="+ id: int" style="text;strokeColor=none;fillColor=none;align=left;verticalAlign=top;spacingLeft=4;spacingRight=4;overflow=hidden;rotatable=0;points=[[0,0.5],[1,0.5]];portConstraint=eastwest;fontColor=#FFFFFF;rounded=1;sketch=1;labelBorderColor=none;" parent="7" vertex="1">
                    <mxGeometry y="26" width="160" height="26" as="geometry"/>
                </mxCell>
                <mxCell id="8" value="+ title: string" style="text;strokeColor=none;fillColor=none;align=left;verticalAlign=top;spacingLeft=4;spacingRight=4;overflow=hidden;rotatable=0;points=[[0,0.5],[1,0.5]];portConstraint=eastwest;fontColor=#FFFFFF;rounded=1;sketch=1;labelBorderColor=none;" parent="7" vertex="1">
                    <mxGeometry y="52" width="160" height="26" as="geometry"/>
                </mxCell>
                <mxCell id="18" value="+ description: string" style="text;strokeColor=none;fillColor=none;align=left;verticalAlign=top;spacingLeft=4;spacingRight=4;overflow=hidden;rotatable=0;points=[[0,0.5],[1,0.5]];portConstraint=eastwest;fontColor=#FFFFFF;rounded=1;sketch=1;labelBorderColor=none;" parent="7" vertex="1">
                    <mxGeometry y="78" width="160" height="26" as="geometry"/>
                </mxCell>
                <mxCell id="19" value="+ time: int" style="text;strokeColor=none;fillColor=none;align=left;verticalAlign=top;spacingLeft=4;spacingRight=4;overflow=hidden;rotatable=0;points=[[0,0.5],[1,0.5]];portConstraint=eastwest;fontColor=#FFFFFF;rounded=1;sketch=1;labelBorderColor=none;" parent="7" vertex="1">
                    <mxGeometry y="104" width="160" height="26" as="geometry"/>
                </mxCell>
                <mxCell id="20" value="+ done: boolean" style="text;strokeColor=none;fillColor=none;align=left;verticalAlign=top;spacingLeft=4;spacingRight=4;overflow=hidden;rotatable=0;points=[[0,0.5],[1,0.5]];portConstraint=eastwest;fontColor=#FFFFFF;rounded=1;sketch=1;labelBorderColor=none;" parent="7" vertex="1">
                    <mxGeometry y="130" width="160" height="26" as="geometry"/>
                </mxCell>
                <mxCell id="9" value="" style="line;strokeWidth=1;fillColor=none;align=left;verticalAlign=middle;spacingTop=-1;spacingLeft=3;spacingRight=3;rotatable=0;labelPosition=right;points=[];portConstraint=eastwest;fontColor=#FFFFFF;rounded=1;sketch=1;labelBorderColor=none;" parent="7" vertex="1">
                    <mxGeometry y="156" width="160" height="8" as="geometry"/>
                </mxCell>
                <mxCell id="23" value="Node" style="swimlane;fontStyle=1;align=center;verticalAlign=top;childLayout=stackLayout;horizontal=1;startSize=26;horizontalStack=0;resizeParent=1;resizeParentMax=0;resizeLast=0;collapsible=1;marginBottom=0;fillColor=#6a00ff;fontColor=#FFFFFF;rounded=1;sketch=1;labelBorderColor=none;strokeColor=#3700CC;" parent="232" vertex="1">
                    <mxGeometry x="544" y="86" width="160" height="138" as="geometry"/>
                </mxCell>
                <mxCell id="87" value="+ id: int" style="text;strokeColor=none;fillColor=none;align=left;verticalAlign=top;spacingLeft=4;spacingRight=4;overflow=hidden;rotatable=0;points=[[0,0.5],[1,0.5]];portConstraint=eastwest;fontColor=#FFFFFF;rounded=1;sketch=1;labelBorderColor=none;" parent="23" vertex="1">
                    <mxGeometry y="26" width="160" height="26" as="geometry"/>
                </mxCell>
                <mxCell id="24" value="+ title: string" style="text;strokeColor=none;fillColor=none;align=left;verticalAlign=top;spacingLeft=4;spacingRight=4;overflow=hidden;rotatable=0;points=[[0,0.5],[1,0.5]];portConstraint=eastwest;fontColor=#FFFFFF;rounded=1;sketch=1;labelBorderColor=none;" parent="23" vertex="1">
                    <mxGeometry y="52" width="160" height="26" as="geometry"/>
                </mxCell>
                <mxCell id="25" value="+ description: string" style="text;strokeColor=none;fillColor=none;align=left;verticalAlign=top;spacingLeft=4;spacingRight=4;overflow=hidden;rotatable=0;points=[[0,0.5],[1,0.5]];portConstraint=eastwest;fontColor=#FFFFFF;rounded=1;sketch=1;labelBorderColor=none;" parent="23" vertex="1">
                    <mxGeometry y="78" width="160" height="26" as="geometry"/>
                </mxCell>
                <mxCell id="26" value="+ time: int" style="text;strokeColor=none;fillColor=none;align=left;verticalAlign=top;spacingLeft=4;spacingRight=4;overflow=hidden;rotatable=0;points=[[0,0.5],[1,0.5]];portConstraint=eastwest;fontColor=#FFFFFF;rounded=1;sketch=1;labelBorderColor=none;" parent="23" vertex="1">
                    <mxGeometry y="104" width="160" height="26" as="geometry"/>
                </mxCell>
                <mxCell id="28" value="" style="line;strokeWidth=1;fillColor=none;align=left;verticalAlign=middle;spacingTop=-1;spacingLeft=3;spacingRight=3;rotatable=0;labelPosition=right;points=[];portConstraint=eastwest;fontColor=#FFFFFF;rounded=1;sketch=1;labelBorderColor=none;" parent="23" vertex="1">
                    <mxGeometry y="130" width="160" height="8" as="geometry"/>
                </mxCell>
                <mxCell id="113" value="" style="edgeStyle=none;html=1;endArrow=none;endFill=0;startArrow=diamond;startFill=1;fontColor=#FFFFFF;rounded=1;sketch=0;labelBorderColor=none;strokeColor=#FFFFFF;" parent="232" source="7" target="23" edge="1">
                    <mxGeometry relative="1" as="geometry">
                        <mxPoint x="448" y="232" as="sourcePoint"/>
                        <mxPoint x="528" y="232" as="targetPoint"/>
                    </mxGeometry>
                </mxCell>
                <mxCell id="114" value="Contains" style="edgeLabel;html=1;align=center;verticalAlign=middle;resizable=0;points=[];labelBackgroundColor=none;fontColor=#FFFFFF;rounded=1;sketch=1;labelBorderColor=none;" parent="113" vertex="1" connectable="0">
                    <mxGeometry x="0.4641" y="4" relative="1" as="geometry">
                        <mxPoint x="-26" y="-3" as="offset"/>
                    </mxGeometry>
                </mxCell>
                <mxCell id="115" value="1" style="edgeLabel;html=1;align=center;verticalAlign=middle;resizable=0;points=[];fontSize=11;labelBackgroundColor=none;fontColor=#FFFFFF;rounded=1;sketch=1;labelBorderColor=none;" parent="113" vertex="1" connectable="0">
                    <mxGeometry x="-0.8149" relative="1" as="geometry">
                        <mxPoint x="1" y="8" as="offset"/>
                    </mxGeometry>
                </mxCell>
                <mxCell id="116" value="1,*" style="edgeLabel;html=1;align=center;verticalAlign=middle;resizable=0;points=[];fontSize=11;labelBackgroundColor=none;fontColor=#FFFFFF;rounded=1;sketch=1;labelBorderColor=none;" parent="113" vertex="1" connectable="0">
                    <mxGeometry x="0.7565" y="1" relative="1" as="geometry">
                        <mxPoint x="2" y="-5" as="offset"/>
                    </mxGeometry>
                </mxCell>
                <mxCell id="121" value="" style="edgeStyle=none;html=1;endArrow=none;endFill=0;startArrow=diamond;startFill=1;fontColor=#FFFFFF;rounded=1;sketch=0;labelBorderColor=none;strokeColor=#FFFFFF;" parent="232" source="23" target="44" edge="1">
                    <mxGeometry relative="1" as="geometry">
                        <mxPoint x="399" y="312" as="sourcePoint"/>
                        <mxPoint x="479" y="312" as="targetPoint"/>
                    </mxGeometry>
                </mxCell>
                <mxCell id="122" value="Nominates" style="edgeLabel;html=1;align=center;verticalAlign=middle;resizable=0;points=[];labelBackgroundColor=none;fontColor=#FFFFFF;rounded=1;sketch=1;labelBorderColor=none;" parent="121" vertex="1" connectable="0">
                    <mxGeometry x="0.4641" y="4" relative="1" as="geometry">
                        <mxPoint x="-27" y="-4" as="offset"/>
                    </mxGeometry>
                </mxCell>
                <mxCell id="123" value="1" style="edgeLabel;html=1;align=center;verticalAlign=middle;resizable=0;points=[];fontSize=11;labelBackgroundColor=none;fontColor=#FFFFFF;rounded=1;sketch=1;labelBorderColor=none;" parent="121" vertex="1" connectable="0">
                    <mxGeometry x="-0.8149" relative="1" as="geometry">
                        <mxPoint x="-4" y="10" as="offset"/>
                    </mxGeometry>
                </mxCell>
                <mxCell id="124" value="0,*" style="edgeLabel;html=1;align=center;verticalAlign=middle;resizable=0;points=[];fontSize=11;labelBackgroundColor=none;fontColor=#FFFFFF;rounded=1;sketch=1;labelBorderColor=none;" parent="121" vertex="1" connectable="0">
                    <mxGeometry x="0.7565" y="1" relative="1" as="geometry">
                        <mxPoint x="2" y="-7" as="offset"/>
                    </mxGeometry>
                </mxCell>
                <mxCell id="2" value="Roadmap" style="swimlane;fontStyle=1;align=center;verticalAlign=top;childLayout=stackLayout;horizontal=1;startSize=26;horizontalStack=0;resizeParent=1;resizeParentMax=0;resizeLast=0;collapsible=1;marginBottom=0;fillColor=#6a00ff;fontColor=#FFFFFF;rounded=1;sketch=1;labelBorderColor=none;labelBackgroundColor=none;strokeColor=#3700CC;" parent="232" vertex="1">
                    <mxGeometry x="41.5" y="72" width="160" height="164" as="geometry"/>
                </mxCell>
                <mxCell id="16" value="+ id: int" style="text;strokeColor=none;fillColor=none;align=left;verticalAlign=top;spacingLeft=4;spacingRight=4;overflow=hidden;rotatable=0;points=[[0,0.5],[1,0.5]];portConstraint=eastwest;fontColor=#FFFFFF;rounded=1;sketch=1;labelBorderColor=none;" parent="2" vertex="1">
                    <mxGeometry y="26" width="160" height="26" as="geometry"/>
                </mxCell>
                <mxCell id="73" value="+ title: string" style="text;strokeColor=none;fillColor=none;align=left;verticalAlign=top;spacingLeft=4;spacingRight=4;overflow=hidden;rotatable=0;points=[[0,0.5],[1,0.5]];portConstraint=eastwest;fontColor=#FFFFFF;rounded=1;sketch=1;labelBorderColor=none;" parent="2" vertex="1">
                    <mxGeometry y="52" width="160" height="26" as="geometry"/>
                </mxCell>
                <mxCell id="14" value="+ description: string" style="text;strokeColor=none;fillColor=none;align=left;verticalAlign=top;spacingLeft=4;spacingRight=4;overflow=hidden;rotatable=0;points=[[0,0.5],[1,0.5]];portConstraint=eastwest;fontColor=#FFFFFF;rounded=1;sketch=1;labelBorderColor=none;" parent="2" vertex="1">
                    <mxGeometry y="78" width="160" height="26" as="geometry"/>
                </mxCell>
                <mxCell id="13" value="+ time: int" style="text;strokeColor=none;fillColor=none;align=left;verticalAlign=top;spacingLeft=4;spacingRight=4;overflow=hidden;rotatable=0;points=[[0,0.5],[1,0.5]];portConstraint=eastwest;fontColor=#FFFFFF;rounded=1;sketch=1;labelBorderColor=none;" parent="2" vertex="1">
                    <mxGeometry y="104" width="160" height="26" as="geometry"/>
                </mxCell>
                <mxCell id="15" value="+ done: boolean" style="text;strokeColor=none;fillColor=none;align=left;verticalAlign=top;spacingLeft=4;spacingRight=4;overflow=hidden;rotatable=0;points=[[0,0.5],[1,0.5]];portConstraint=eastwest;fontColor=#FFFFFF;rounded=1;sketch=1;labelBorderColor=none;" parent="2" vertex="1">
                    <mxGeometry y="130" width="160" height="26" as="geometry"/>
                </mxCell>
                <mxCell id="4" value="" style="line;strokeWidth=1;fillColor=none;align=left;verticalAlign=middle;spacingTop=-1;spacingLeft=3;spacingRight=3;rotatable=0;labelPosition=right;points=[];portConstraint=eastwest;fontColor=#FFFFFF;rounded=1;sketch=1;labelBorderColor=none;" parent="2" vertex="1">
                    <mxGeometry y="156" width="160" height="8" as="geometry"/>
                </mxCell>
                <mxCell id="11" value="" style="edgeStyle=none;html=1;endArrow=none;endFill=0;startArrow=diamond;startFill=0;fontColor=#FFFFFF;rounded=1;sketch=0;labelBorderColor=none;strokeColor=#FFFFFF;" parent="232" source="2" target="7" edge="1">
                    <mxGeometry relative="1" as="geometry"/>
                </mxCell>
                <mxCell id="17" value="Contains" style="edgeLabel;html=1;align=center;verticalAlign=middle;resizable=0;points=[];labelBackgroundColor=none;fontColor=#FFFFFF;rounded=1;sketch=1;labelBorderColor=none;" parent="11" vertex="1" connectable="0">
                    <mxGeometry x="0.4641" y="4" relative="1" as="geometry">
                        <mxPoint x="-25" y="-3" as="offset"/>
                    </mxGeometry>
                </mxCell>
                <mxCell id="110" value="1,*" style="edgeLabel;html=1;align=center;verticalAlign=middle;resizable=0;points=[];fontSize=11;labelBackgroundColor=none;fontColor=#FFFFFF;rounded=1;sketch=1;labelBorderColor=none;" parent="11" vertex="1" connectable="0">
                    <mxGeometry x="-0.8149" relative="1" as="geometry">
                        <mxPoint x="1" y="9" as="offset"/>
                    </mxGeometry>
                </mxCell>
                <mxCell id="112" value="1,*" style="edgeLabel;html=1;align=center;verticalAlign=middle;resizable=0;points=[];fontSize=11;labelBackgroundColor=none;fontColor=#FFFFFF;rounded=1;sketch=1;labelBorderColor=none;" parent="11" vertex="1" connectable="0">
                    <mxGeometry x="0.7565" y="1" relative="1" as="geometry">
                        <mxPoint y="-6" as="offset"/>
                    </mxGeometry>
                </mxCell>
                <mxCell id="133" value="" style="edgeStyle=none;html=1;endArrow=none;endFill=0;startArrow=none;startFill=0;fontColor=#FFFFFF;rounded=1;sketch=0;labelBorderColor=none;strokeColor=#FFFFFF;" parent="1" source="2" target="75" edge="1">
                    <mxGeometry relative="1" as="geometry">
                        <mxPoint x="285" y="297" as="sourcePoint"/>
                        <mxPoint x="365" y="297" as="targetPoint"/>
                    </mxGeometry>
                </mxCell>
                <mxCell id="134" value="Follows" style="edgeLabel;html=1;align=center;verticalAlign=middle;resizable=0;points=[];labelBackgroundColor=none;rotation=-90;fontColor=#FFFFFF;rounded=1;sketch=1;labelBorderColor=none;" parent="133" vertex="1" connectable="0">
                    <mxGeometry x="0.4641" y="4" relative="1" as="geometry">
                        <mxPoint x="-11" y="-13" as="offset"/>
                    </mxGeometry>
                </mxCell>
                <mxCell id="135" value="1,*" style="edgeLabel;html=1;align=center;verticalAlign=middle;resizable=0;points=[];fontSize=11;labelBackgroundColor=none;fontColor=#FFFFFF;rounded=1;sketch=1;labelBorderColor=none;" parent="133" vertex="1" connectable="0">
                    <mxGeometry x="-0.8149" relative="1" as="geometry">
                        <mxPoint x="-11" y="1" as="offset"/>
                    </mxGeometry>
                </mxCell>
                <mxCell id="136" value="0,*" style="edgeLabel;html=1;align=center;verticalAlign=middle;resizable=0;points=[];fontSize=11;labelBackgroundColor=none;fontColor=#FFFFFF;rounded=1;sketch=1;labelBorderColor=none;" parent="133" vertex="1" connectable="0">
                    <mxGeometry x="0.7565" y="1" relative="1" as="geometry">
                        <mxPoint x="16" y="-1" as="offset"/>
                    </mxGeometry>
                </mxCell>
                <mxCell id="299" value="" style="edgeStyle=none;html=1;endArrow=none;endFill=0;startArrow=none;startFill=0;fontColor=#FFFFFF;rounded=1;sketch=0;labelBorderColor=none;strokeColor=#FFFFFF;" parent="1" source="2" target="237" edge="1">
                    <mxGeometry relative="1" as="geometry">
                        <mxPoint x="39.99999999999977" y="270" as="sourcePoint"/>
                        <mxPoint x="39.99999999999977" y="392" as="targetPoint"/>
                        <Array as="points">
                            <mxPoint x="-20" y="231"/>
                        </Array>
                    </mxGeometry>
                </mxCell>
                <mxCell id="300" value="Manages" style="edgeLabel;html=1;align=center;verticalAlign=middle;resizable=0;points=[];labelBackgroundColor=none;rotation=-90;fontColor=#FFFFFF;rounded=1;sketch=1;labelBorderColor=none;" parent="299" vertex="1" connectable="0">
                    <mxGeometry x="0.4641" y="4" relative="1" as="geometry">
                        <mxPoint x="-11" y="-32" as="offset"/>
                    </mxGeometry>
                </mxCell>
                <mxCell id="301" value="0,*" style="edgeLabel;html=1;align=center;verticalAlign=middle;resizable=0;points=[];fontSize=11;labelBackgroundColor=none;fontColor=#FFFFFF;rounded=1;sketch=1;labelBorderColor=none;" parent="299" vertex="1" connectable="0">
                    <mxGeometry x="-0.8149" relative="1" as="geometry">
                        <mxPoint x="25" y="-11" as="offset"/>
                    </mxGeometry>
                </mxCell>
                <mxCell id="302" value="1,*" style="edgeLabel;html=1;align=center;verticalAlign=middle;resizable=0;points=[];fontSize=11;labelBackgroundColor=none;fontColor=#FFFFFF;rounded=1;sketch=1;labelBorderColor=none;" parent="299" vertex="1" connectable="0">
                    <mxGeometry x="0.7565" y="1" relative="1" as="geometry">
                        <mxPoint x="9" y="41" as="offset"/>
                    </mxGeometry>
                </mxCell>
                <mxCell id="312" value="Interview Questions" style="swimlane;startSize=0;rounded=1;shadow=0;glass=0;labelBackgroundColor=none;comic=0;fontSize=11;strokeColor=none;fillColor=none;gradientColor=none;gradientDirection=north;swimlaneFillColor=#666600;fontColor=#FFFFFF;sketch=1;labelBorderColor=none;" parent="1" vertex="1">
                    <mxGeometry x="400" y="410" width="230" height="300" as="geometry"/>
                </mxCell>
                <mxCell id="304" value="Interview Question" style="swimlane;fontStyle=1;align=center;verticalAlign=top;childLayout=stackLayout;horizontal=1;startSize=26;horizontalStack=0;resizeParent=1;resizeParentMax=0;resizeLast=0;collapsible=1;marginBottom=0;fillColor=#6a00ff;fontColor=#FFFFFF;rounded=1;sketch=1;labelBorderColor=none;labelBackgroundColor=none;strokeColor=#3700CC;" parent="312" vertex="1">
                    <mxGeometry x="37.5" y="89" width="160" height="112" as="geometry"/>
                </mxCell>
                <mxCell id="305" value="+ id: int" style="text;strokeColor=none;fillColor=none;align=left;verticalAlign=top;spacingLeft=4;spacingRight=4;overflow=hidden;rotatable=0;points=[[0,0.5],[1,0.5]];portConstraint=eastwest;fontColor=#FFFFFF;rounded=1;sketch=1;labelBorderColor=none;" parent="304" vertex="1">
                    <mxGeometry y="26" width="160" height="26" as="geometry"/>
                </mxCell>
                <mxCell id="306" value="+ question: string" style="text;strokeColor=none;fillColor=none;align=left;verticalAlign=top;spacingLeft=4;spacingRight=4;overflow=hidden;rotatable=0;points=[[0,0.5],[1,0.5]];portConstraint=eastwest;fontColor=#FFFFFF;rounded=1;sketch=1;labelBorderColor=none;" parent="304" vertex="1">
                    <mxGeometry y="52" width="160" height="26" as="geometry"/>
                </mxCell>
                <mxCell id="307" value="+ answer: string" style="text;strokeColor=none;fillColor=none;align=left;verticalAlign=top;spacingLeft=4;spacingRight=4;overflow=hidden;rotatable=0;points=[[0,0.5],[1,0.5]];portConstraint=eastwest;fontColor=#FFFFFF;rounded=1;sketch=1;labelBorderColor=none;" parent="304" vertex="1">
                    <mxGeometry y="78" width="160" height="26" as="geometry"/>
                </mxCell>
                <mxCell id="310" value="" style="line;strokeWidth=1;fillColor=none;align=left;verticalAlign=middle;spacingTop=-1;spacingLeft=3;spacingRight=3;rotatable=0;labelPosition=right;points=[];portConstraint=eastwest;fontColor=#FFFFFF;rounded=1;sketch=1;labelBorderColor=none;" parent="304" vertex="1">
                    <mxGeometry y="104" width="160" height="8" as="geometry"/>
                </mxCell>
            </root>
        </mxGraphModel>
    </diagram>
</mxfile>